{"title":"Bang Bang (2014) DvDscr-AC3 2.0 Audio-Team Telly","uid":11145825,"size":1558865192,"categoryP":"video","categoryS":"movies","magnet":"?xt=urn:btih:cde74ac527e413f25ae347f58f06189c0085c1e3&amp;dn=Bang+Bang+%282014%29+DvDscr-AC3+2.0+Audio-Team+Telly&amp;tr=udp%3A%2F%2Ftracker.openbittorrent.com%3A80&amp;tr=udp%3A%2F%2Fopen.demonii.com%3A1337&amp;tr=udp%3A%2F%2Ftracker.coppersurfer.tk%3A6969&amp;tr=udp%3A%2F%2Fexodus.desync.com%3A6969","seeders":2,"leechers":0,"uploader":"TeX","files":2,"time":1412260078,"description":" &lt;a href=&quot;https://rarbg.com&quot; rel=&quot;nofollow&quot; target=&quot;_NEW&quot;&gt;https://rarbg.com&lt;/a&gt;\n\nGeneral\nUnique ID : 297370721692277830618865210348154703817 (0xDFB7848B34D24A57803DDDF8B8E8CFC9)\nComplete name : /home/sbx1/downloads/Bang Bang(2014) 1-3 CD TellySCR RIP-AC3 2.0 Audio-Team Telly/Bang Bang(2014) 1-3 CD TellySCR RIP-AC3 2.0 Audio-Team Telly.mkv\nFormat : Matroska\nFormat version : Version 2\nFile size : 1.45 GiB\nDuration : 2h 31mn\nOverall bit rate : 1 370 Kbps\nWriting application : HandBrake 0.9.9\nWriting library : libmkv 0.6.5\n\nVideo\nID : 1\nFormat : AVC\nFormat/Info : Advanced Video Codec\nFormat profile : &lt;a class=&quot;__cf_email__&quot; href=&quot;/cdn-cgi/l/email-protection&quot; data-cfemail=&quot;337e525a5d737f071d03&quot;&gt;[email&amp;#160;protected]&lt;/a&gt;&lt;script cf-hash='f9e31' type=&quot;text/javascript&quot;&gt;\n/* &lt;![CDATA[ */!function(){try{var t=&quot;currentScript&quot;in document?document.currentScript:function(){for(var t=document.getElementsByTagName(&quot;script&quot;),e=t.length;e--;)if(t[e].getAttribute(&quot;cf-hash&quot;))return t[e]}();if(t&amp;&amp;t.previousSibling){var e,r,n,i,c=t.previousSibling,a=c.getAttribute(&quot;data-cfemail&quot;);if(a){for(e=&quot;&quot;,r=parseInt(a.substr(0,2),16),n=2;a.length-n;n+=2)i=parseInt(a.substr(n,2),16)^r,e+=String.fromCharCode(i);e=document.createTextNode(e),c.parentNode.replaceChild(e,c)}}}catch(u){}}();/* ]]&gt; */&lt;/script&gt;\nFormat settings, CABAC : Yes\nFormat settings, ReFrames : 4 frames\nCodec ID : V_MPEG4/ISO/AVC\nDuration : 2h 31mn\nBit rate : 895 Kbps\nWidth : 640 pixels\nHeight : 272 pixels\nDisplay aspect ratio : 2.35:1\nFrame rate mode : Variable\nFrame rate : 25.000 fps\nColor space : YUV\nChroma subsampling : 4:2:0\nBit depth : 8 bits\nScan type : Progressive\nBits/(Pixel*Frame) : 0.206\nStream size : 971 MiB (65%)\nWriting library : x264 core 130 r2273 b3065e6\nLanguage : English\nDefault : Yes\nForced : No\nColor primaries : BT.470-6 System B, BT.470-6 System G, BT.601-6 625, BT.1358 625, BT.1700 625 PAL, BT.1700 625 SECAM\nTransfer characteristics : BT.709-5, BT.1361\nMatrix coefficients : BT.601-6 525, BT.1358 525, BT.1700 NTSC, SMPTE 170M\n\nAudio\nID : 2\nFormat : AC-3\nFormat/Info : Audio Coding 3\nMode extension : CM (complete main)\nFormat settings, Endianness : Big\nCodec ID : A_AC3\nDuration : 2h 31mn\nBit rate mode : Constant\nBit rate : 448 Kbps\nChannel(s) : 2 channels\nChannel positions : Front: L R\nSampling rate : 44.1 KHz\nBit depth : 16 bits\nCompression mode : Lossy\nStream size : 486 MiB (33%)\nDefault : Yes\nForced : No\n\n[img]http://tellypremium.com/images/2014/10/02/b4092b913c694b0a.png[/img]\n[img]http://tellypremium.com/images/2014/10/02/94c0d1d6e941591d.png[/img]\n","torrent":{"xt":"urn:btih:cde74ac527e413f25ae347f58f06189c0085c1e3","amp;dn":"Bang+Bang+%282014%29+DvDscr-AC3+2.0+Audio-Team+Telly","amp;tr":["udp%3A%2F%2Ftracker.openbittorrent.com%3A80","udp%3A%2F%2Fopen.demonii.com%3A1337","udp%3A%2F%2Ftracker.coppersurfer.tk%3A6969","udp%3A%2F%2Fexodus.desync.com%3A6969"],"infoHash":"cde74ac527e413f25ae347f58f06189c0085c1e3","infoHashBuffer":{"type":"Buffer","data":[205,231,74,197,39,228,19,242,90,227,71,245,143,6,24,156,0,133,193,227]},"announce":[],"urlList":[]}}